<svg height="1365.333" viewBox="0 0 1024 1024" width="1365.333" xmlns="http://www.w3.org/2000/svg"><path d="m512.6 56c-.3 1.9-1.1 6.9-1.7 11-1.8 12.8-2.7 18-5.3 33.5-2.4 14.5-4 24.3-5.1 31.5-1.1 7.7-3.8 24.1-5.5 33.5-.5 3.3-1.5 8.9-2 12.5-.6 3.6-1.5 9.2-2.1 12.5-.5 3.3-1.4 8.9-2 12.5-1.1 8-2.5 16.4-3.9 25l-2 12c-.5 3-1.6 9.5-2.4 14.5-.8 4.9-2 12.1-2.6 16-.6 3.8-1.5 9.2-2 12-.5 2.7-1.2 6.6-1.4 8.5-.7 5.3-3.5 22.7-5.6 34.5-.5 3.3-1.4 8.7-2 12-.5 3.3-1.4 8.7-2 12s-1.5 9.1-2.1 13c-2 13.7-3.3 22.3-5.8 37-.6 3.3-1.5 8.7-2 12s-1.7 9.8-2.5 14.5c-.9 4.7-1.6 9.6-1.6 11.1 0 2 6.5 8.9 31.5 33.9l31.6 31.3 30.9-30.9c35.9-35.8 32.6-29.4 28.4-53.9-1.4-8.3-2.9-17.7-3.4-21-1.1-7.3-2.5-15.8-3.9-24.5-3.9-23.4-15.3-93.8-18.1-112-1.1-6.9-2.5-15.1-3-18.3-2.4-13.8-3.1-17.7-4.4-26.7-3.4-21.6-8.6-53.8-9.5-58.5-.6-2.8-1.5-8.2-2-12-1.6-10.5-8.9-56.2-10.1-62.5-.5-3-1.5-8.7-2.1-12.5-.7-3.9-1.8-9.3-2.4-12l-1.3-5-.6 3.5zm-219 232.1c1.7 2.9 142.8 143.9 143.9 143.9 1.5 0 2.5-2.2 2.5-5.6 0-1.3.5-4.3 1-6.6.9-3.6 7-40.7 7-42.2 0-.4-15-9.6-25.5-15.6-1.6-1-8.6-5-15.5-9-6.8-4-13.8-8.1-15.5-9-1.6-.9-7.6-4.5-13.3-7.9-5.6-3.3-10.5-6.1-10.8-6.1s-1.8-.8-3.2-1.9c-2.6-1.8-5.7-3.6-15.2-8.9-2.5-1.3-4.9-2.8-5.5-3.2-2.1-1.6-47.1-27.6-48.8-28.3-1.2-.4-1.6-.3-1.1.4zm370.4 76.4c-57.6 57.6-72.2 72.7-71 73.5.8.5 3.1 1.2 5 1.5s5.8 1 8.5 1.5c9.6 1.9 36.4 6 38.9 6 1.6 0 3.2-1 4.5-2.9 1.2-1.6 2.1-3.1 2.1-3.4 0-.2 3.7-6.7 8.2-14.3 13.8-23.5 17.8-30.5 17.8-31.1 0-.3.8-1.7 1.9-3.1 1-1.5 2.8-4.3 3.9-6.2s5.2-9.1 9.2-16 8.1-14.1 9.2-16 4.3-7.3 7.1-12c4.7-8 5.9-10.1 10.6-18.3 1-1.7 4.6-7.9 8-13.5 3.3-5.7 6.1-10.7 6.1-11 0-.4.9-1.8 2-3.2 2.1-2.6 2.5-4 1.3-4-.5 0-33.4 32.6-73.3 72.5zm-233 84.6c-5.7 1.1-16 2.8-51.5 8.5-43.4 6.9-53.1 8.4-58.5 9.4-3 .5-9.8 1.6-15 2.5-22.6 3.5-53.9 8.6-58.5 9.4-2.7.6-8.1 1.5-12 2-11.5 1.7-61.3 9.8-75.5 12.2-3 .5-15.4 2.5-27.5 4.4-12.1 2-29 4.7-37.5 6-8.5 1.4-17.7 2.9-20.5 3.4-2.7.5-7.9 1.5-11.5 2.1-5.6 1-10.4 2.9-7.5 3 2.5.1 19 2.7 32 5 8.4 1.4 23 3.8 38.5 6 3.6.6 9 1.4 12 2 9.4 1.6 17.3 3 23.5 4 3.3.5 8.8 1.4 12.3 2 12.3 2 24.1 3.9 38.2 6 10.3 1.5 18.5 2.9 20.5 3.4 1.1.2 5.2.9 9 1.6 3.9.6 11.1 1.8 16 2.6 5 .9 12.2 2 16 2.6 8.1 1.1 15.4 2.2 24.5 3.7 6 .9 9.9 1.6 25 4.1 3 .5 8.2 1.4 11.5 2 6.1 1.1 14.1 2.3 25.3 4 3.4.6 9 1.4 12.5 2 3.4.5 8.9 1.4 12.2 1.9 10.9 1.9 17.9 3 24 4 3.3.5 9.8 1.7 14.5 2.5s10.4 1.6 12.8 1.8l4.3.2 30.9-30.9c17.1-17.1 31-31.3 31-31.6s-13.8-14.6-30.6-31.8c-33.2-33.7-30.7-31.9-40.4-30zm122.8 33.2-30.7 31.2 6.7 7c3.7 3.8 17.5 17.9 30.7 31.2 20 20.2 24.5 24.3 26.8 24.3 2.4 0 12.1-1.5 32.7-5 10.6-1.8 18.7-3.1 43.5-7 13.8-2.2 27.6-4.5 30.8-5 13-2.3 17.9-3.1 32.7-5.4 32.1-5.1 47.7-7.7 53.3-8.6 13.7-2.4 18.7-3.2 49.2-8 22-3.5 30.1-4.8 37-6.1 2.8-.5 9.3-1.5 14.5-2.4 17.2-2.6 53.4-8.5 59.3-9.5 3.1-.5 8.5-1.5 12-2.1 11.4-1.9 17.7-3.3 17.7-3.9 0-.4-4.2-1.2-9.2-1.8-9.2-1.2-14.6-2.1-26.3-4.2-7.8-1.4-30.3-5-38-6.1-7-1-16.8-2.5-24.5-3.9-3-.5-8.2-1.4-11.5-1.9-6.3-1.1-14.3-2.4-24.7-4.2-3.5-.5-9.1-1.4-12.5-2-3.5-.5-9.1-1.3-12.5-1.8-3.5-.6-9-1.4-12.3-2s-8.7-1.5-12-2-10-1.7-15-2.5c-4.9-.8-12.1-2-16-2.6-3.8-.6-8.9-1.5-11.3-2-2.3-.6-5.6-1-7.2-1s-4.9-.4-7.2-1c-2.4-.5-7.7-1.4-11.8-2-4.1-.7-9.5-1.5-12-2s-7.6-1.3-11.5-1.9c-3.8-.7-11-1.9-16-2.7-9.9-1.7-18.5-3-25.5-3.9-2.5-.3-6.7-1-9.5-1.5-5.8-1.1-21.2-3.7-30-5-3.3-.5-9.8-1.6-14.5-2.5-14.8-2.6-10.7-5.3-45.2 29.8zm-74.3 71.7c-27.5 27.4-31 31.2-30.7 33.7.4 3.9 3 20.7 4.1 26.8.5 2.7 1.4 7.9 2 11.5 1.5 9.4 5.9 37 7.6 48 .9 5.2 2 12.1 2.5 15.2 2.9 17.1 4.1 24 8.5 52.3 1.3 8.8 2.9 18.6 3.5 21.7 1.9 11 3 17.3 4.4 26.8 2.1 13.4 6.1 37.8 9.1 56 1.5 8.5 3 18.2 3.5 21.5s1.4 8.7 1.9 12 1.6 10.3 2.5 15.5c2.3 14.9 5.5 35 6.6 41 .5 3 1.4 8.6 2.1 12.5 2.4 14.6 4.1 21.7 5 20.4.5-.8.9-3.1.9-5.1 0-2.1.5-5.7 1-8 1.3-5.5 4.8-26.6 9-54.8 1.5-10.3 2.9-18.5 4-24.5.6-3.3 1.3-7.6 1.6-9.5s.9-5.8 1.4-8.5c.9-4.6 4.1-24.8 5.5-34 .9-6.5 4-25.4 5.5-34 .5-3.3 1.4-8.7 1.9-12 .6-3.3 1.5-8.7 2.1-12s1.5-9.2 2.1-13c4.5-29.4 4.9-31.9 5.9-37.5l2-12c1.6-9.9 3-17.9 4.1-24.5.5-3.3 1.5-9.2 2-13 2.4-16.4 4.5-29.2 5.9-37 .6-3.3 1.5-8.7 2-12s1.6-9.8 2.4-14.5 1.7-10.7 2.1-13.4l.7-4.8-31.2-30.9c-17.1-17-31.4-30.9-31.8-30.9s-14.6 13.9-31.7 31zm-107.9 32.6c-3.1 5.2-5.6 9.7-5.6 9.9s-2.2 4-5 8.5c-2.7 4.5-5 8.3-5 8.6 0 .2-1.1 2.1-2.4 4.2-1.3 2-5.6 9.3-9.6 16.2s-10.2 17.4-13.8 23.5c-3.6 6-7.4 12.6-8.5 14.5-1.9 3.4-11.2 19.3-25.8 44-7.9 13.3-9.3 16-8.1 16 1.1 0 145.7-144.9 145.1-145.4-.9-.9-12.9-3.3-27.4-5.6-3.8-.6-11-1.7-16-2.5-4.9-.8-9.7-1.5-10.6-1.5-1 0-3.8 3.8-7.3 9.6zm213.9 9.1c-1.1 6-2.4 13.3-3.4 19.8-.6 3.3-1.9 11.4-2.9 18-1.2 7.3-1.6 12.6-1.1 13.6.4.9 4.6 3.8 9.1 6.4 4.6 2.6 9.8 5.6 11.6 6.6 1.7 1.1 4.7 2.8 6.6 3.8 1.8 1 6.6 3.9 10.7 6.4 4.1 2.4 12.4 7.2 18.4 10.7 6.1 3.5 14.3 8.2 18.2 10.6 4 2.4 7.5 4.4 7.7 4.4s3.4 1.8 7.1 4.1c3.7 2.2 8.2 4.9 9.9 5.9 1.7.9 7.2 4.1 12.1 7 5 2.9 10.4 6 12 7 1.7 1 9 5.2 16.3 9.5 7.3 4.2 13.5 7.5 13.8 7.2.8-.7-142.6-144.7-144.1-144.7-.7 0-1.6 1.7-2 3.7z"/></svg>