<?xml version="1.0" standalone="no"?>
<!DOCTYPE svg PUBLIC "-//W3C//DTD SVG 20010904//EN"
 "http://www.w3.org/TR/2001/REC-SVG-20010904/DTD/svg10.dtd">
<svg version="1.0" xmlns="http://www.w3.org/2000/svg"
 width="512.000000pt" height="512.000000pt" viewBox="0 0 512.000000 512.000000"
 preserveAspectRatio="xMidYMid meet">
<metadata>
Created by potrace 1.11, written by Peter Selinger 2001-2013
</metadata>
<g transform="translate(0.000000,512.000000) scale(0.100000,-0.100000)"
fill="#000000" stroke="none">
<path d="M2571 3718 c-1 -604 2 -1098 7 -1098 4 0 75 67 157 150 l149 150 -58
357 c-31 197 -82 509 -112 693 -30 184 -68 421 -85 525 -61 380 -57 431 -58
-777z"/>
<path d="M1820 3327 c200 -202 368 -363 371 -359 7 7 51 264 46 267 -2 2 -240
142 -392 230 -49 29 -142 83 -205 120 -63 37 -131 76 -150 87 -19 12 129 -144
330 -345z"/>
<path d="M3321 3296 c-289 -289 -360 -365 -345 -369 11 -3 64 -13 119 -22 55
-8 109 -18 121 -20 18 -4 35 20 124 173 57 97 157 269 223 382 142 243 129
220 125 220 -2 0 -167 -164 -367 -364z"/>
<path d="M1600 2784 c-316 -51 -717 -117 -890 -144 -173 -28 -333 -55 -355
-59 -23 -5 436 -9 1055 -10 l1094 -1 -39 43 c-125 134 -262 267 -275 266 -8 0
-274 -43 -590 -95z"/>
<path d="M2771 2394 l156 -156 159 26 c88 14 256 41 374 60 118 20 339 56 490
80 151 25 376 61 500 81 422 68 484 62 -735 64 l-1100 1 156 -156z"/>
<path d="M2398 2353 l-157 -158 29 -175 c87 -532 251 -1545 261 -1610 6 -41
14 -82 18 -91 3 -10 6 479 6 1087 0 607 0 1104 0 1104 0 0 -71 -71 -157 -157z"/>
<path d="M1731 1968 c-85 -145 -185 -316 -223 -381 -38 -66 -68 -121 -66 -123
2 -2 165 158 363 356 198 198 356 362 352 366 -8 8 -210 44 -247 44 -23 0 -42
-28 -179 -262z"/>
<path d="M2916 2073 c-8 -49 -18 -111 -22 -139 l-6 -51 118 -70 c66 -38 241
-141 389 -227 l270 -157 -65 68 c-137 143 -655 663 -661 663 -4 0 -14 -39 -23
-87z"/>
</g>
</svg>
